<?xml version="1.0" standalone="no"?>
<!DOCTYPE svg PUBLIC "-//W3C//DTD SVG 20010904//EN"
 "http://www.w3.org/TR/2001/REC-SVG-20010904/DTD/svg10.dtd">
<svg version="1.0" xmlns="http://www.w3.org/2000/svg"
 width="200.000000pt" height="200.000000pt" viewBox="0 0 200.000000 200.000000"
 preserveAspectRatio="xMidYMid meet">
<metadata>
Created by potrace 1.14, written by Peter Selinger 2001-2017
</metadata>
<g transform="translate(0.000000,200.000000) scale(0.100000,-0.100000)"
fill="#000000" stroke="none">
<path d="M1343 1845 c-85 -19 -153 -57 -217 -125 -95 -99 -132 -201 -123 -343
4 -75 10 -99 40 -161 80 -160 262 -266 430 -249 109 11 192 47 265 117 99 94
143 191 143 323 1 103 -19 173 -71 251 -69 103 -176 173 -297 192 -73 12 -93
12 -170 -5z m185 -211 c108 -45 178 -191 142 -299 -25 -74 -108 -144 -191
-159 -89 -16 -209 41 -257 123 -35 59 -37 145 -5 207 25 47 91 110 137 130 42
18 128 17 174 -2z"/>
<path d="M630 1165 c0 -509 -3 -632 -14 -659 -43 -102 -172 -102 -218 1 -15
35 -19 61 -16 117 l3 71 -132 3 -133 3 0 -75 c0 -172 50 -316 135 -395 74 -67
137 -86 285 -86 106 0 120 3 172 28 96 47 181 159 213 282 13 50 15 156 15
697 l0 638 -155 0 -155 0 0 -625z"/>
<path d="M1085 970 l-70 -71 155 -153 155 -154 1 -83 c0 -46 1 -146 2 -221 l2
-138 110 0 110 0 0 219 0 218 163 162 162 161 -70 65 c-38 35 -75 64 -80 65
-6 0 -73 -63 -150 -140 l-140 -140 -140 140 -140 140 -70 -70z"/>
</g>
</svg>
